<svg width="219.06732177734375px" height="65.6px" xmlns="http://www.w3.org/2000/svg" viewBox="140.46633911132812 42.2 219.06732177734375 65.6" style="background: rgba(0, 0, 0, 0);" preserveAspectRatio="xMidYMid"><defs><filter id="editing-extrude-glow"><feFlood flood-color="rgba(0%,0%,0%,0)" result="flood-1"></feFlood><feMorphology operator="erode" radius="1" in="SourceAlpha" result="erode"></feMorphology><feComposite operator="in" in="flood-1" in2="erode" result="comp1"></feComposite><feConvolveMatrix order="3,3" divisor="1" in="comp1" result="convolve" kernelMatrix="0 0 0 1 1 1 0 0 0"></feConvolveMatrix><feOffset dx="-3" dy="0" in="convolve" result="extrude"></feOffset><feComposite operator="in" in="flood-1" in2="extrude" result="comp-extrude"></feComposite><feFlood flood-color="rgba(0%,0%,0%,0)" result="flood-2"></feFlood><feComposite operator="in" in="flood-2" in2="SourceAlpha" result="comp2"></feComposite><feMorphology operator="dilate" radius="1" in="comp2" result="dilate"></feMorphology><feOffset dx="-4.5" dy="0" in="dilate" result="offset"></feOffset><feGaussianBlur in="offset" stdDeviation="5.8" result="blur"></feGaussianBlur><feComponentTransfer in="blur" result="shadow"><feFuncA type="linear" slope="0.8" intercept="-0.2"></feFuncA></feComponentTransfer><feMerge><feMergeNode in="shadow"></feMergeNode><feMergeNode in="comp-extrude"></feMergeNode><feMergeNode in="SourceGraphic"></feMergeNode></feMerge></filter></defs><g filter="url(#editing-extrude-glow)"><g transform="translate(175.74216675758362, 87.96500015258789)"><path d="M2.51-3.60L2.51-7.93L6.12-7.93L6.12-3.60L16.31-3.60L16.31-25.21L19.92-25.21L19.92-3.60L19.92-3.60Q19.92-2.87 19.63-2.21L19.63-2.21L19.63-2.21Q19.34-1.55 18.85-1.05L18.85-1.05L18.85-1.05Q18.37-0.56 17.71-0.28L17.71-0.28L17.71-0.28Q17.05 0 16.31 0L16.31 0L6.12 0L6.12 0Q5.38 0 4.72-0.28L4.72-0.28L4.72-0.28Q4.06-0.56 3.58-1.05L3.58-1.05L3.58-1.05Q3.09-1.55 2.80-2.21L2.80-2.21L2.80-2.21Q2.51-2.87 2.51-3.60L2.51-3.60ZM42.22-15.26L42.22-3.46L42.22-3.46Q42.22-2.74 41.95-2.11L41.95-2.11L41.95-2.11Q41.68-1.48 41.21-1.01L41.21-1.01L41.21-1.01Q40.75-0.54 40.12-0.27L40.12-0.27L40.12-0.27Q39.50 0 38.78 0L38.78 0L29.48 0L29.48 0Q28.78 0 28.14-0.27L28.14-0.27L28.14-0.27Q27.51-0.54 27.04-1.01L27.04-1.01L27.04-1.01Q26.58-1.48 26.31-2.11L26.31-2.11L26.31-2.11Q26.03-2.74 26.03-3.46L26.03-3.46L26.03-15.26L26.03-15.26Q26.03-15.98 26.31-16.61L26.31-16.61L26.31-16.61Q26.58-17.24 27.04-17.71L27.04-17.71L27.04-17.71Q27.51-18.18 28.14-18.45L28.14-18.45L28.14-18.45Q28.78-18.72 29.48-18.72L29.48-18.72L38.78-18.72L38.78-18.72Q39.50-18.72 40.12-18.45L40.12-18.45L40.12-18.45Q40.75-18.18 41.21-17.71L41.21-17.71L41.21-17.71Q41.68-17.24 41.95-16.61L41.95-16.61L41.95-16.61Q42.22-15.98 42.22-15.26L42.22-15.26ZM38.78-15.26L29.48-15.26L29.48-3.46L38.78-3.46L38.78-15.26ZM64.55-15.26L64.55-3.46L64.55-3.46Q64.55-2.74 64.27-2.11L64.27-2.11L64.27-2.11Q64.00-1.48 63.54-1.01L63.54-1.01L63.54-1.01Q63.07-0.54 62.44-0.27L62.44-0.27L62.44-0.27Q61.80 0 61.08 0L61.08 0L51.43 0L51.43 0Q50.73 0 50.10-0.27L50.10-0.27L50.10-0.27Q49.46-0.54 49.00-1.01L49.00-1.01L49.00-1.01Q48.53-1.48 48.26-2.11L48.26-2.11L48.26-2.11Q47.99-2.74 47.99-3.46L47.99-3.46L47.99-25.93L51.43-25.93L51.43-15.42L51.43-15.42Q51.47-16.10 51.75-16.71L51.75-16.71L51.75-16.71Q52.03-17.31 52.50-17.76L52.50-17.76L52.50-17.76Q52.96-18.21 53.58-18.47L53.58-18.47L53.58-18.47Q54.19-18.72 54.90-18.72L54.90-18.72L61.08-18.72L61.08-18.72Q61.80-18.72 62.44-18.45L62.44-18.45L62.44-18.45Q63.07-18.18 63.54-17.71L63.54-17.71L63.54-17.71Q64.00-17.24 64.27-16.61L64.27-16.61L64.27-16.61Q64.55-15.98 64.55-15.26L64.55-15.26ZM61.08-15.26L51.43-15.26L51.43-3.46L61.08-3.46L61.08-15.26ZM69.22-15.26L69.22-18.72L73.79-18.72L73.79-24.49L77.26-24.49L77.26-18.72L83.41-18.72L83.41-15.26L77.26-15.26L77.26-3.46L83.41-3.46L83.41 0L77.26 0L77.26 0Q76.55 0 75.92-0.27L75.92-0.27L75.92-0.27Q75.29-0.54 74.81-1.01L74.81-1.01L74.81-1.01Q74.34-1.48 74.07-2.11L74.07-2.11L74.07-2.11Q73.79-2.74 73.79-3.46L73.79-3.46L73.79-15.26L69.22-15.26ZM99.76-15.26L92.62-15.26L92.62 0L89.17 0L89.17-18.72L92.62-18.72L92.62-15.42L92.62-15.42Q92.65-16.10 92.94-16.71L92.94-16.71L92.94-16.71Q93.22-17.31 93.68-17.76L93.68-17.76L93.68-17.76Q94.15-18.21 94.76-18.47L94.76-18.47L94.76-18.47Q95.38-18.72 96.08-18.72L96.08-18.72L99.76-18.72L99.76-18.72Q100.48-18.72 101.10-18.45L101.10-18.45L101.10-18.45Q101.72-18.18 102.20-17.71L102.20-17.71L102.20-17.71Q102.67-17.24 102.95-16.61L102.95-16.61L102.95-16.61Q103.22-15.98 103.22-15.26L103.22-15.26L103.22-12.09L99.76-12.09L99.76-15.26ZM107.53-3.46L107.53-8.17L107.53-8.17Q107.53-8.89 107.80-9.52L107.80-9.52L107.80-9.52Q108.07-10.14 108.54-10.62L108.54-10.62L108.54-10.62Q109.00-11.09 109.63-11.36L109.63-11.36L109.63-11.36Q110.27-11.64 110.97-11.64L110.97-11.64L119.90-11.64L119.90-15.26L108.60-15.26L108.60-18.72L119.90-18.72L119.90-18.72Q120.62-18.72 121.25-18.45L121.25-18.45L121.25-18.45Q121.89-18.18 122.35-17.71L122.35-17.71L122.35-17.71Q122.82-17.24 123.09-16.61L123.09-16.61L123.09-16.61Q123.36-15.98 123.36-15.26L123.36-15.26L123.36 0L119.90 0L119.90-3.16L119.90-3.16Q119.85-2.51 119.55-1.93L119.55-1.93L119.55-1.93Q119.25-1.35 118.78-0.92L118.78-0.92L118.78-0.92Q118.32-0.49 117.72-0.25L117.72-0.25L117.72-0.25Q117.12 0 116.46 0L116.46 0L110.97 0L110.97 0Q110.27 0 109.63-0.27L109.63-0.27L109.63-0.27Q109.00-0.54 108.54-1.01L108.54-1.01L108.54-1.01Q108.07-1.48 107.80-2.11L107.80-2.11L107.80-2.11Q107.53-2.74 107.53-3.46L107.53-3.46ZM110.97-8.17L110.97-3.46L119.90-3.46L119.90-8.17L110.97-8.17ZM146.37 0L141.50 0L132.57-8.00L132.57 0L129.13 0L129.13-25.93L132.57-25.93L132.57-11.34L140.78-18.72L145.65-18.72L135.60-9.69L146.37 0Z" fill="#54d1db"></path></g></g><style>text {
  font-size: 64px;
  font-family: Arial Black;
  dominant-baseline: central;
  text-anchor: middle;
}</style></svg>